P2
10 13
255
0 0 0 0 0 0 0 0 0 0 
0 1 1 1 1 1 1 1 0 0 
0 1 1 2 2 2 2 2 0 0 
0 1 2 4 4 3 3 2 0 0 
0 0 3 5 5 5 5 0 0 0 
0 0 4 4 5 6 6 0 0 0 
0 1 6 5 3 5 6 6 4 0 
0 1 6 3 3 4 7 8 0 0 
0 2 2 5 5 5 8 9 5 0 
0 1 3 3 4 9 5 5 5 0 
0 1 2 2 6 2 2 0 0 0 
0 0 1 1 1 0 0 0 1 0 
0 0 0 0 0 0 0 0 0 1 