P2
5 4
255
50 0 17 0 255 
0 100 0 70 0
0 0 150 0 38
255 0 0 200 255