P2
5 4
255
0 1 2 4 6 
0 1 2 4 7
0 1 2 4 8
0 1 2 4 9